<svg width="209" height="209" xmlns="http://www.w3.org/2000/svg" xmlns:xlink="http://www.w3.org/1999/xlink" xml:space="preserve" overflow="hidden"><defs><clipPath id="clip0"><rect x="2962" y="1513" width="209" height="209"/></clipPath></defs><g clip-path="url(#clip0)" transform="translate(-2962 -1513)"><rect x="2962" y="1513" width="209" height="209" fill="#FF7900"/><path d="M3043.74 1702.25C3040.78 1704.18 3037.56 1705 3034.33 1705 3028.96 1705 3026 1701.42 3026 1696.74 3026 1690.14 3031.64 1686.56 3043.74 1685.18 3043.74 1683.81 3043.74 1683.81 3043.74 1683.81 3043.74 1681.61 3042.13 1680.23 3039.17 1680.23 3036.48 1680.23 3034.06 1681.61 3032.45 1683.81 3027.34 1680.78 3027.34 1680.78 3027.34 1680.78 3030.03 1676.93 3034.06 1675 3039.44 1675 3046.7 1675 3051 1678.3 3051 1683.81 3051 1683.81 3051 1704.72 3051 1704.72 3044.28 1704.72 3044.28 1704.72 3044.28 1704.72L3043.74 1702.25ZM3033.26 1696.19C3033.26 1698.12 3034.33 1699.77 3036.48 1699.77 3038.9 1699.77 3041.32 1698.94 3043.47 1696.74 3043.47 1689.86 3043.47 1689.86 3043.47 1689.86 3036.48 1690.69 3033.26 1692.62 3033.26 1696.19Z" fill="#FFFFFF" fill-rule="evenodd"/><path d="M3057 1676.39C3063.36 1675.56 3063.36 1675.56 3063.36 1675.56 3063.92 1679.17 3063.92 1679.17 3063.92 1679.17 3067.51 1676.39 3070.28 1675 3073.87 1675 3079.96 1675 3083 1678.33 3083 1684.44 3083 1705 3083 1705 3083 1705 3075.26 1705 3075.26 1705 3075.26 1705 3075.26 1685.83 3075.26 1685.83 3075.26 1685.83 3075.26 1682.22 3074.43 1680.83 3071.66 1680.83 3069.45 1680.83 3066.96 1681.67 3064.47 1683.89 3064.47 1705 3064.47 1705 3064.47 1705 3057 1705 3057 1705 3057 1705L3057 1676.39Z" fill="#FFFFFF" fill-rule="evenodd"/><path d="M3134.78 1705C3126.24 1705 3121 1699.55 3121 1690 3121 1680.45 3126.24 1675 3134.5 1675 3143.04 1675 3148 1680.45 3148 1689.73 3148 1690.27 3147.73 1690.55 3147.73 1691.09 3128.44 1691.09 3128.44 1691.09 3128.44 1691.09 3128.71 1696.55 3130.92 1699.27 3135.33 1699.27 3138.36 1699.27 3140.29 1698.18 3141.94 1695.73 3147.45 1698.73 3147.45 1698.73 3147.45 1698.73 3144.97 1702.82 3140.56 1705 3134.78 1705ZM3140.29 1686.18C3140.29 1682.36 3138.08 1680.18 3134.5 1680.18 3131.19 1680.18 3128.99 1682.36 3128.71 1686.18L3140.29 1686.18Z" fill="#FFFFFF" fill-rule="evenodd"/><path d="M2987.5 1705C2979.97 1705 2973 1700.13 2973 1689.87 2973 1679.59 2979.97 1675 2987.5 1675 2995.03 1675 3002 1679.59 3002 1689.87 3002 1700.13 2995.03 1705 2987.5 1705ZM2987.5 1681.22C2981.64 1681.22 2980.81 1686.35 2980.81 1689.87 2980.81 1693.65 2981.64 1698.51 2987.5 1698.51 2993.36 1698.51 2994.47 1693.65 2994.47 1689.87 2994.47 1686.35 2993.36 1681.22 2987.5 1681.22Z" fill="#FFFFFF" fill-rule="evenodd"/><path d="M3007 1675.83C3014.49 1675.83 3014.49 1675.83 3014.49 1675.83 3014.49 1679.17 3014.49 1679.17 3014.49 1679.17 3015.93 1677.22 3019.68 1675 3022.85 1675 3023.42 1675 3023.71 1675 3024 1675.28 3024 1682.5 3024 1682.5 3024 1682.5 3024 1682.5 3023.71 1682.5 3023.71 1682.5 3020.25 1682.5 3016.22 1682.78 3015.07 1685.56 3015.07 1705 3015.07 1705 3015.07 1705 3007 1705 3007 1705 3007 1705L3007 1675.83Z" fill="#FFFFFF" fill-rule="evenodd"/><path d="M3102.5 1698.39C3108.29 1698.39 3108.84 1692.61 3108.84 1688.76 3108.84 1684.08 3106.63 1680.5 3102.5 1680.5 3099.75 1680.5 3096.71 1682.43 3096.71 1689.03 3096.71 1692.61 3096.99 1698.39 3102.5 1698.39ZM3116 1675.55C3116 1703.07 3116 1703.07 3116 1703.07 3116 1707.74 3115.73 1715.72 3101.95 1716 3096.16 1716 3090.93 1713.8 3089.83 1708.85 3097.27 1707.47 3097.27 1707.47 3097.27 1707.47 3097.82 1708.85 3098.64 1710.22 3102.78 1710.22 3106.91 1710.22 3108.84 1708.57 3108.84 1703.89 3108.84 1700.59 3108.84 1700.59 3108.84 1700.59 3108.56 1700.32 3108.56 1700.32 3108.56 1700.32 3107.46 1702.52 3105.53 1704.72 3101.12 1704.72 3094.24 1704.72 3089 1700.04 3089 1690.13 3089 1680.5 3094.51 1675 3100.57 1675 3106.36 1675 3108.56 1677.75 3109.11 1679.13 3109.11 1679.13 3109.11 1679.13 3109.11 1679.13 3109.66 1675.55 3109.66 1675.55 3109.66 1675.55L3116 1675.55Z" fill="#FFFFFF" fill-rule="evenodd"/><path d="M3150.57 1666.06 3147.86 1666.06 3147.86 1674 3146.24 1674 3146.24 1666.06 3143 1666.06 3143 1665 3150.57 1665 3150.57 1666.06ZM3163 1674 3161.38 1674 3161.38 1666.06 3158.68 1674 3157.59 1674 3154.35 1666.06 3153.81 1666.06 3153.81 1674 3152.73 1674 3152.73 1665 3154.89 1665 3158.14 1671.88 3160.84 1665 3163 1665 3163 1674Z" fill="#FFFFFF" fill-rule="evenodd"/></g></svg>